HIERARCHY
ROOT Hips
{
	OFFSET 0.00000 0.00000 0.00000
	CHANNELS 6 Xposition Yposition Zposition Yrotation Zrotation Xrotation 
	JOINT Lumbar
	{
		OFFSET 0 0 0
		CHANNELS 3 Zrotation Xrotation Yrotation
		JOINT Neck
		{
			OFFSET 0.00 0.2701 0.00
			CHANNELS 3 Zrotation Xrotation Yrotation
			End Site
			{
				OFFSET 0.00 0.1379 0.00
			}
		}
		JOINT RightShoulder
		{
			OFFSET 0.0119 0.2289 0.1181
			CHANNELS 3 Zrotation Xrotation Yrotation
			JOINT RightElbow
			{
				OFFSET 0.00 -0.1475 0.00
				CHANNELS 2 Zrotation Yrotation
				JOINT RightWrist
				{
					OFFSET 0.00 -0.1605 0.00
					CHANNELS 2 Zrotation Xrotation
					End Site
					{
						OFFSET 0.0040 -0.1068 0.0006
					}
				}
			}
		}
		JOINT LeftShoulder
		{
			OFFSET 0.0119 0.2289 -0.1181
			CHANNELS 3 Zrotation Xrotation Yrotation
			JOINT LeftElbow
			{
				OFFSET 0.00 -0.1475 0.00
				CHANNELS 2 Zrotation Yrotation
				JOINT LeftWrist
				{
					OFFSET 0.00 -0.1605 0.00
					CHANNELS 2 Zrotation Xrotation
					End Site
					{
						OFFSET 0.0040 -0.1068 -0.0006
					}
				}
			}
		}
	}
	JOINT RightHip
	{
		OFFSET 0.0316 -0.0424 0.0458
		CHANNELS 3 Zrotation Xrotation Yrotation
		JOINT RightKnee
		{
			OFFSET 0.00 -0.2438 0.00
			CHANNELS 1 Zrotation
			JOINT RightAnkle
			{
				OFFSET 0.00 -0.2449 0.00
				CHANNELS 3 Zrotation Xrotation Yrotation
				End Site
				{
					OFFSET 0.1237 -0.0542 0.0051
				}
			}
		}
	}
	JOINT LeftHip
	{
		OFFSET 0.0316 -0.0424 -0.0458
		CHANNELS 3 Zrotation Xrotation Yrotation
		JOINT LeftKnee
		{
			OFFSET 0.00 -0.2438 0.00
			CHANNELS 1 Zrotation
			JOINT LeftAnkle
			{
				OFFSET 0.00 -0.2449 0.00
				CHANNELS 3 Zrotation Xrotation Yrotation
				End Site
				{
					OFFSET 0.1237 -0.0542 -0.0051
				}
			}
		}
	}
}
MOTION
Frames: 17
Frame Time: 0.02
0 0.57926 0 193.12027 0 -4.24248 4.42558 6.08903 -2.84971 -14.79601 0.60802 1.25821 10.90878 -9.53564 -6.00463 7.17719 80.78093 -1.78526 -0.50006 10.27842 7.6663 18.25532 6.80376 -80.29686 -2.5809 -1.12072 -1.57293 7.01933 19.74438 -6.45125 -0.20756 -1.92224 -1.99418 -1.85723 2.23022 -12.63748 -8.00735 6.35098 4.65813 7.17535
-0.0001 0.57922 -4e-05 193.20325 0 -4.23818 4.46189 6.08477 -2.88179 -14.80816 0.60563 1.22253 11.33292 -9.76673 -5.00269 7.41873 80.77715 -1.85871 -0.67854 10.83604 7.79687 17.2384 6.96648 -80.28287 -2.63665 -0.98058 -1.61466 7.01852 19.71701 -6.40429 -0.19847 -1.95737 -2.04938 -1.84503 2.2312 -12.73511 -8.03182 6.36924 4.66634 7.1834
-0.0002 0.57919 -8e-05 193.28565 0 -4.2339 4.498 6.08054 -2.91307 -14.8201 0.60353 1.18664 11.75557 -9.99694 -4.00678 7.65908 80.7733 -1.93187 -0.85634 11.39185 7.92647 16.22519 7.12934 -80.26866 -2.69257 -0.84038 -1.65623 7.0177 19.68955 -6.35756 -0.18942 -1.9922 -2.10396 -1.83302 2.23218 -12.83204 -8.05607 6.38741 4.67451 7.19142
-0.0003 0.57915 -0.00012 193.36591 0 -4.22969 4.53374 6.07637 -2.94222 -14.83144 0.60231 1.1508 12.17647 -10.22589 -3.02525 7.89691 80.76899 -2.00487 -1.03315 11.94555 8.05353 15.2161 7.29426 -80.25325 -2.74964 -0.69898 -1.69734 7.01687 19.66182 -6.3114 -0.18057 -2.02614 -2.15627 -1.82174 2.23326 -12.92652 -8.07948 6.40529 4.68263 7.1994
-0.0004 0.57911 -0.00016 193.45674 0 -4.22519 4.57152 6.07187 -2.98354 -14.84611 0.59615 1.11622 12.6068 -10.4615 -1.96759 8.14797 80.76694 -2.07907 -1.21521 12.51005 8.19414 14.18417 7.44821 -80.24395 -2.80053 -0.56445 -1.74062 7.01615 19.63597 -6.26235 -0.17079 -2.06475 -2.22021 -1.80668 2.2339 -13.03327 -8.10712 6.42462 4.69103 7.20764
-0.0005 0.57907 -0.0002 193.52567 0 -4.22126 4.60488 6.06807 -2.99848 -14.8536 0.60064 1.07798 13.01664 -10.6828 -1.07199 8.37087 80.76021 -2.15041 -1.38597 13.05139 8.30586 13.2023 7.62524 -80.2219 -2.8645 -0.41519 -1.77943 7.01516 19.60589 -6.21936 -0.16291 -2.09347 -2.25975 -1.79957 2.23543 -13.11445 -8.12593 6.44091 4.69883 7.21529
-0.00065 0.57906 -0.00024 193.52904 0 -4.21913 4.62726 6.06631 -2.94352 -14.84178 0.63393 1.03718 13.37992 -10.86912 -0.6161 8.51838 80.73929 -2.21753 -1.52924 13.53888 8.33868 12.33206 7.87238 -80.16121 -2.96717 -0.22228 -1.80512 7.01356 19.56515 -6.19351 -0.16089 -2.09453 -2.2281 -1.81588 2.23991 -13.12025 -8.11864 6.44859 4.70519 7.22161
-0.00081 0.57906 -0.00027 193.51112 0 -4.21754 4.64501 6.06525 -2.86149 -14.82269 0.67808 0.9915 13.72083 -11.04036 -0.32518 8.637 80.71386 -2.28114 -1.66056 14.00133 8.34227 11.51756 8.14153 -80.08812 -3.0827 -0.01483 -1.82647 7.01167 19.51998 -6.17369 -0.16066 -2.08566 -2.17243 -1.84006 2.24523 -13.10093 -8.10266 6.45327 4.7109 7.22725
-0.00096 0.57905 -0.0003 193.50646 0 -4.21553 4.66408 6.0638 -2.78967 -14.80646 0.71776 0.94276 14.06625 -11.21579 0.03719 8.7677 80.69129 -2.34402 -1.7951 14.46967 8.35861 10.69217 8.39729 -80.02303 -3.19077 0.18426 -1.85032 7.00981 19.476 -6.1508 -0.15921 -2.08155 -2.13023 -1.85962 2.24983 -13.09642 -8.0919 6.45947 4.7168 7.23306
-0.00111 0.57904 -0.00034 193.48723 0 -4.21423 4.68633 6.06263 -2.72606 -14.79173 0.75567 0.91528 14.43653 -11.40248 0.41605 8.90355 80.66527 -2.41671 -1.93897 14.96246 8.37691 9.80074 8.66892 -79.94843 -3.30555 0.39068 -1.87191 7.00832 19.43515 -6.12924 -0.15947 -2.07641 -2.07744 -1.88328 2.25576 -13.07833 -8.07614 6.46498 4.72318 7.23961
-0.00126 0.57903 -0.00037 193.49259 0 -4.21162 4.701 6.06105 -2.63972 -14.7726 0.79959 0.84363 14.74843 -11.56207 0.71926 9.02087 80.64541 -2.46812 -2.06054 15.39667 8.38455 9.06667 8.91071 -79.8901 -3.4095 0.58531 -1.89719 7.00606 19.38717 -6.10642 -0.1566 -2.07105 -2.04077 -1.90067 2.25926 -13.08164 -8.06829 6.47124 4.72834 7.24425
-0.00141 0.57902 -0.00036 193.5769 0 -4.20496 4.6947 6.05801 -2.49039 -14.7392 0.85961 0.64029 14.91515 -11.65117 0.86749 9.10178 80.64299 -2.46172 -2.12338 15.68896 8.36704 8.7053 9.08179 -79.88291 -3.47999 0.74387 -1.93364 7.00129 19.31689 -6.07809 -0.14455 -2.06753 -2.05656 -1.89526 2.25474 -13.15822 -8.08837 6.48022 4.73107 7.24583
-0.00156 0.57901 -0.00035 193.6856 0 -4.19703 4.68118 6.05456 -2.32042 -14.70228 0.9249 0.3946 15.02141 -11.71344 0.93947 9.16321 80.64686 -2.43394 -2.16396 15.9197 8.34043 8.51519 9.21873 -79.89068 -3.53931 0.89002 -1.97401 6.99586 19.24031 -6.04837 -0.12929 -2.06415 -2.08909 -1.88393 2.24795 -13.25581 -8.11604 6.49012 4.73249 7.24521
-0.00172 0.57899 -0.00034 193.77928 0 -4.18988 4.67167 6.0514 -2.16437 -14.66963 0.98634 0.17556 15.14913 -11.78749 1.04166 9.22904 80.64855 -2.416 -2.21507 16.17085 8.31982 8.27081 9.36031 -79.89106 -3.60387 1.04192 -2.01259 6.99103 19.16897 -6.01972 -0.11558 -2.06068 -2.11253 -1.87764 2.24294 -13.33843 -8.13759 6.49961 4.73392 7.24415
-0.00184 0.57898 -0.00033 193.88877 0 -4.1819 4.65877 6.04783 -1.98812 -14.62578 1.05424 -0.07454 15.30369 -11.86256 1.17035 9.31431 80.64799 -2.39776 -2.265 16.45688 8.29004 7.90485 9.54923 -79.89856 -3.66779 1.1941 -2.05087 6.98491 19.08726 -5.9896 -0.10162 -2.0569 -2.14111 -1.8617 2.23483 -13.4427 -8.16992 6.50877 4.7376 7.24883
-0.00203 0.57897 -0.00032 193.97147 0 -4.17535 4.65145 6.045 -1.84951 -14.60413 1.10986 -0.27038 15.38552 -11.92955 1.21094 9.35278 80.6527 -2.37468 -2.31105 16.65117 8.27794 7.86225 9.63034 -79.88862 -3.73073 1.34227 -2.09101 6.98132 19.02594 -5.96194 -0.08733 -2.05403 -2.16363 -1.86437 2.23258 -13.50762 -8.18197 6.5191 4.73653 7.24143
-0.00238 0.57896 -0.00034 193.97348 0 -4.17301 4.65977 6.04434 -1.81893 -14.64748 1.12964 -0.30204 15.30363 -11.97909 1.16611 9.28533 80.67839 -2.34813 -2.36164 16.64702 8.31381 8.41299 9.42937 -79.88612 -3.78925 1.48487 -2.1331 6.98494 19.02277 -5.94286 -0.07357 -2.05315 -2.16417 -1.91956 2.24742 -13.45504 -8.13384 6.53085 4.72076 7.19794
